<svg xmlns="http://www.w3.org/2000/svg" viewBox="0 0 512 512">
  <defs>
    <radialGradient id="bg" cx="50%" cy="50%" r="70%"><stop offset="0%" stop-color="#1a0a2e"/><stop offset="100%" stop-color="#07030f"/></radialGradient>
    <radialGradient id="g1" cx="30%" cy="70%" r="55%"><stop offset="0%" stop-color="#7c3aed" stop-opacity="0.9"/><stop offset="60%" stop-color="#4c1d95" stop-opacity="0.4"/><stop offset="100%" stop-color="#07030f" stop-opacity="0"/></radialGradient>
    <radialGradient id="g2" cx="75%" cy="25%" r="40%"><stop offset="0%" stop-color="#a855f7" stop-opacity="0.6"/><stop offset="100%" stop-color="#07030f" stop-opacity="0"/></radialGradient>
    <radialGradient id="g3" cx="50%" cy="50%" r="30%"><stop offset="0%" stop-color="#c084fc" stop-opacity="0.15"/><stop offset="100%" stop-color="#07030f" stop-opacity="0"/></radialGradient>
    <filter id="blur1"><feGaussianBlur stdDeviation="18"/></filter>
    <filter id="blur2"><feGaussianBlur stdDeviation="8"/></filter>
  </defs>
  <rect width="512" height="512" fill="url(#bg)"/>
  <ellipse cx="154" cy="358" rx="180" ry="160" fill="url(#g1)" filter="url(#blur1)"/>
  <ellipse cx="384" cy="128" rx="140" ry="120" fill="url(#g2)" filter="url(#blur1)"/>
  <ellipse cx="256" cy="256" rx="100" ry="100" fill="url(#g3)" filter="url(#blur2)"/>
  <!-- Geometric lines -->
  <g opacity="0.18" stroke="#c084fc" stroke-width="0.8" fill="none">
    <line x1="80" y1="420" x2="430" y2="90"/>
    <line x1="60" y1="380" x2="450" y2="50"/>
    <line x1="100" y1="460" x2="410" y2="130"/>
    <line x1="200" y1="30" x2="520" y2="340"/>
    <line x1="170" y1="20" x2="490" y2="360"/>
  </g>
  <!-- Fine grid -->
  <g opacity="0.05" stroke="#a855f7" stroke-width="0.5" fill="none">
    <line x1="0" y1="128" x2="512" y2="128"/><line x1="0" y1="256" x2="512" y2="256"/><line x1="0" y1="384" x2="512" y2="384"/>
    <line x1="128" y1="0" x2="128" y2="512"/><line x1="256" y1="0" x2="256" y2="512"/><line x1="384" y1="0" x2="384" y2="512"/>
  </g>
  <!-- Bright core -->
  <circle cx="165" cy="345" r="4" fill="#e9d5ff" opacity="0.7"/>
  <circle cx="165" cy="345" r="12" fill="#7c3aed" opacity="0.25" filter="url(#blur2)"/>
</svg>