<svg xmlns="http://www.w3.org/2000/svg" viewBox="0 0 512 512">
  <defs>
    <radialGradient id="bg" cx="50%" cy="50%" r="70%"><stop offset="0%" stop-color="#120800"/><stop offset="100%" stop-color="#060408"/></radialGradient>
    <radialGradient id="g1" cx="70%" cy="70%" r="55%"><stop offset="0%" stop-color="#ea580c" stop-opacity="0.8"/><stop offset="60%" stop-color="#9a3412" stop-opacity="0.35"/><stop offset="100%" stop-color="#060408" stop-opacity="0"/></radialGradient>
    <radialGradient id="g2" cx="20%" cy="30%" r="40%"><stop offset="0%" stop-color="#f97316" stop-opacity="0.45"/><stop offset="100%" stop-color="#060408" stop-opacity="0"/></radialGradient>
    <filter id="blur1"><feGaussianBlur stdDeviation="22"/></filter>
    <filter id="blur2"><feGaussianBlur stdDeviation="5"/></filter>
  </defs>
  <rect width="512" height="512" fill="url(#bg)"/>
  <ellipse cx="358" cy="358" rx="210" ry="180" fill="url(#g1)" filter="url(#blur1)"/>
  <ellipse cx="102" cy="153" rx="150" ry="120" fill="url(#g2)" filter="url(#blur1)"/>
  <!-- Architectural vertical lines -->
  <g opacity="0.13" stroke="#fb923c" stroke-width="1" fill="none">
    <line x1="180" y1="0" x2="160" y2="512"/>
    <line x1="230" y1="0" x2="210" y2="512"/>
    <line x1="280" y1="0" x2="260" y2="512"/>
    <line x1="330" y1="0" x2="310" y2="512"/>
    <line x1="380" y1="0" x2="360" y2="512"/>
  </g>
  <!-- Horizon line -->
  <g opacity="0.2" stroke="#fdba74" stroke-width="0.8" fill="none">
    <line x1="0" y1="290" x2="512" y2="290"/>
    <line x1="0" y1="296" x2="512" y2="296"/>
  </g>
  <g opacity="0.06" stroke="#f97316" stroke-width="0.5" fill="none">
    <line x1="0" y1="128" x2="512" y2="128"/><line x1="0" y1="384" x2="512" y2="384"/>
    <line x1="128" y1="0" x2="128" y2="512"/><line x1="384" y1="0" x2="384" y2="512"/>
  </g>
  <circle cx="352" cy="350" r="5" fill="#fed7aa" opacity="0.75"/>
  <circle cx="352" cy="350" r="18" fill="#ea580c" opacity="0.18" filter="url(#blur2)"/>
</svg>